<svg class="animated" id="freepik_stories-jumping-into-the-pool" xmlns="http://www.w3.org/2000/svg" viewBox="0 0 500 500" version="1.1" xmlns:xlink="http://www.w3.org/1999/xlink" xmlns:svgjs="http://svgjs.com/svgjs"><style>svg#freepik_stories-jumping-into-the-pool:not(.animated) .animable {opacity: 0;}svg#freepik_stories-jumping-into-the-pool.animated #freepik--background-simple--inject-18 {animation: 6s Infinite  linear wind;animation-delay: 0s;}svg#freepik_stories-jumping-into-the-pool.animated #freepik--character-2--inject-18 {animation: 6s Infinite  linear floating;animation-delay: 0s;}svg#freepik_stories-jumping-into-the-pool.animated #freepik--character-3--inject-18 {animation: 1s 1 forwards cubic-bezier(.36,-0.01,.5,1.38) slideDown,6s Infinite  linear wind;animation-delay: 0s,1s;}svg#freepik_stories-jumping-into-the-pool.animated #freepik--character-1--inject-18 {animation: 1s 1 forwards cubic-bezier(.36,-0.01,.5,1.38) slideLeft,6s Infinite  linear floating;animation-delay: 0s,1s;}            @keyframes wind {                0% {                    transform: rotate( 0deg );                }                25% {                    transform: rotate( 1deg );                }                75% {                    transform: rotate( -1deg );                }            }                    @keyframes floating {                0% {                    opacity: 1;                    transform: translateY(0px);                }                50% {                    transform: translateY(-10px);                }                100% {                    opacity: 1;                    transform: translateY(0px);                }            }                    @keyframes slideDown {                0% {                    opacity: 0;                    transform: translateY(-30px);                }                100% {                    opacity: 1;                    transform: translateY(0);                }            }                    @keyframes slideLeft {                0% {                    opacity: 0;                    transform: translateX(-30px);                }                100% {                    opacity: 1;                    transform: translateX(0);                }            }        </style><g id="freepik--background-simple--inject-18" class="animable" style="transform-origin: 249.447px 231.13px;"><path d="M280.35,91.56c90.09,19.85,194.58,107.22,93.56,202.5S111.13,393.71,88.36,338.75,123.33,57,280.35,91.56Z" style="fill: rgb(18, 130, 222); transform-origin: 249.447px 231.13px;" id="elk0zm3i8du5i" class="animable"></path><g id="eli0oo14a9gwn"><path d="M280.35,91.56c90.09,19.85,194.58,107.22,93.56,202.5S111.13,393.71,88.36,338.75,123.33,57,280.35,91.56Z" style="fill: rgb(255, 255, 255); opacity: 0.9; transform-origin: 249.447px 231.13px;" class="animable"></path></g></g><g id="freepik--Shadow--inject-18" class="animable" style="transform-origin: 250px 416.24px;"><ellipse id="freepik--path--inject-18" cx="250" cy="416.24" rx="193.89" ry="11.32" style="fill: rgb(245, 245, 245); transform-origin: 250px 416.24px;" class="animable"></ellipse></g><g id="freepik--Pool--inject-18" class="animable" style="transform-origin: 246.705px 368.62px;"><path d="M436.41,372.81v20.55a2.79,2.79,0,0,0-1.93-.11c-6,1.77-4.33-1.25-10.55-4.29s-10.54,1.25-18.95,2.75-18.16,3.65-29.52-.52-21.79-3.94-29.6-.73-22.15,4.9-36.19,1.88-32.48-3-45.63,0-34.33.45-41.07-.2-28.86-5.15-37.55-1.2-15.72,1.59-24.54,0-14.4.8-22.42,2.44-20.83,2-24.68-.13-18.31-2.3-27.27.13-12.4,2-20.58-1.12a13,13,0,0,0-8.93-.14V372.81Z" style="fill: rgb(38, 50, 56); transform-origin: 246.705px 383.876px;" id="elh9w7xksd9yk" class="animable"></path><g id="eldks4dw8m0k"><path d="M436.41,372.81v20.55a2.79,2.79,0,0,0-1.93-.11c-6,1.77-4.33-1.25-10.55-4.29s-10.54,1.25-18.95,2.75-18.16,3.65-29.52-.52-21.79-3.94-29.6-.73-22.15,4.9-36.19,1.88-32.48-3-45.63,0-34.33.45-41.07-.2-28.86-5.15-37.55-1.2-15.72,1.59-24.54,0-14.4.8-22.42,2.44-20.83,2-24.68-.13-18.31-2.3-27.27.13-12.4,2-20.58-1.12a13,13,0,0,0-8.93-.14V372.81Z" style="fill: rgb(255, 255, 255); opacity: 0.6; isolation: isolate; transform-origin: 246.705px 383.876px;" class="animable"></path></g><g id="elyn1e0kx5c"><path d="M80,374.26v20.5c-4.79.59-8.21-.27-14.09-2.5a12.78,12.78,0,0,0-7-.64V374.26Z" style="fill: rgb(255, 255, 255); opacity: 0.2; isolation: isolate; transform-origin: 69.455px 384.6px;" class="animable"></path></g><g id="elyeknj9pupjp"><path d="M102.17,374.26v17.35a63.67,63.67,0,0,0-15.66,1.77,51,51,0,0,1-5.43,1.22V374.26Z" style="fill: rgb(255, 255, 255); opacity: 0.2; isolation: isolate; transform-origin: 91.625px 384.43px;" class="animable"></path></g><g id="elvhk94sue2"><path d="M124.33,374.26v20.46c-4.6,0-8.66-.43-10.55-1.47s-5.83-1.54-10.55-1.62V374.26Z" style="fill: rgb(255, 255, 255); opacity: 0.2; isolation: isolate; transform-origin: 113.78px 384.49px;" class="animable"></path></g><g id="el739ocpw28cn"><path d="M146.48,374.26v17.27c-2.53.56-5.12,1.26-8,1.85a76.12,76.12,0,0,1-13.07,1.33V374.26Z" style="fill: rgb(255, 255, 255); opacity: 0.2; isolation: isolate; transform-origin: 135.945px 384.485px;" class="animable"></path></g><g id="elk9fhiyvw6k"><path d="M168.63,374.26v18.16c-2.48-.43-5-1-7.75-1.48a32.87,32.87,0,0,0-13.34.37V374.26Z" style="fill: rgb(255, 255, 255); opacity: 0.2; isolation: isolate; transform-origin: 158.085px 383.34px;" class="animable"></path></g><g id="elrug6l5bg7ip"><path d="M190.79,374.26V389.6a18.74,18.74,0,0,0-5.37,1.34c-5.62,2.56-10.55,2.47-15.72,1.66V374.26Z" style="fill: rgb(255, 255, 255); opacity: 0.2; isolation: isolate; transform-origin: 180.245px 383.683px;" class="animable"></path></g><g id="elw4m4zv7bvrf"><path d="M212.94,374.26v16.5c-6.64-.9-14.8-1.81-21.09-1.26V374.26Z" style="fill: rgb(255, 255, 255); opacity: 0.2; isolation: isolate; transform-origin: 202.395px 382.51px;" class="animable"></path></g><g id="elch0mmy72l1"><path d="M235.09,374.26v19c-5.24-.38-9.65-.87-12.12-1.11-1.94-.19-5.16-.7-9-1.23V374.26Z" style="fill: rgb(255, 255, 255); opacity: 0.2; isolation: isolate; transform-origin: 224.53px 383.76px;" class="animable"></path></g><g id="el7ukbjhcaoi2"><path d="M257.25,374.26v19.12a137.4,137.4,0,0,1-21.09-.05V374.26Z" style="fill: rgb(255, 255, 255); opacity: 0.2; isolation: isolate; transform-origin: 246.705px 384.01px;" class="animable"></path></g><g id="elursznhi4vd"><path d="M279.4,374.26v16a96.45,96.45,0,0,0-15.36,2,52,52,0,0,1-5.73.93v-19Z" style="fill: rgb(255, 255, 255); opacity: 0.2; isolation: isolate; transform-origin: 268.855px 383.69px;" class="animable"></path></g><g id="el3h9qawuw34u"><path d="M301.56,374.26V391a125.54,125.54,0,0,0-21.1-.75v-16Z" style="fill: rgb(255, 255, 255); opacity: 0.2; isolation: isolate; transform-origin: 291.01px 382.625px;" class="animable"></path></g><g id="elg4j8bkjvmem"><path d="M323.71,374.26v19.65a73,73,0,0,1-14-1.57c-2.25-.48-4.62-.89-7.05-1.22V374.26Z" style="fill: rgb(255, 255, 255); opacity: 0.2; isolation: isolate; transform-origin: 313.185px 384.085px;" class="animable"></path></g><g id="elxkbzrb3vw9"><path d="M345.86,374.26v16.2c-5,2-12.58,3.47-21.09,3.46V374.26Z" style="fill: rgb(255, 255, 255); opacity: 0.2; isolation: isolate; transform-origin: 335.315px 384.09px;" class="animable"></path></g><g id="el4ysnat76agd"><path d="M368,374.26V389c-7.95-1.67-15.2-1.15-21.09,1V374.26Z" style="fill: rgb(255, 255, 255); opacity: 0.2; isolation: isolate; transform-origin: 357.455px 382.13px;" class="animable"></path></g><g id="elgzewv2n1k7p"><path d="M390.17,374.26V393.6a39.72,39.72,0,0,1-14.71-2.41,51.64,51.64,0,0,0-6.38-1.91v-15Z" style="fill: rgb(255, 255, 255); opacity: 0.2; isolation: isolate; transform-origin: 379.625px 383.937px;" class="animable"></path></g><g id="el8bxlhvfgivl"><path d="M412.33,374.26v15.37a45,45,0,0,1-7.35,2.08,98.51,98.51,0,0,1-13.75,1.86V374.26Z" style="fill: rgb(255, 255, 255); opacity: 0.2; isolation: isolate; transform-origin: 401.78px 383.915px;" class="animable"></path></g><g id="elyy65umwx28r"><path d="M434.48,374.26v19c-6,1.77-4.33-1.25-10.55-4.29-3.77-1.84-6.84-1-10.54.3v-15Z" style="fill: rgb(255, 255, 255); opacity: 0.2; isolation: isolate; transform-origin: 423.935px 384.023px;" class="animable"></path></g><path d="M122.42,336.74a7.18,7.18,0,0,0-7.17,7.17v7.34H89.59v-7.34a7.17,7.17,0,0,0-14.34,0v25.44a1.5,1.5,0,0,0,3,0V343.91a4.17,4.17,0,0,1,8.34,0v55a1.5,1.5,0,0,0,3,0V383.15h37V399a1.5,1.5,0,0,0,3,0v-55A7.18,7.18,0,0,0,122.42,336.74Zm-4.17,7.17a4.17,4.17,0,0,1,8.34,0v7.34h-8.34ZM89.59,380.15v-25.9h25.66v15.1a1.5,1.5,0,0,0,3,0v-15.1h8.34v25.9Z" style="fill: rgb(38, 50, 56); transform-origin: 102.42px 368.62px;" id="eldla5iw8xq2f" class="animable"></path><g id="elumwilh3bdvq"><path d="M122.42,336.74a7.18,7.18,0,0,0-7.17,7.17v7.34H89.59v-7.34a7.17,7.17,0,0,0-14.34,0v25.44a1.5,1.5,0,0,0,3,0V343.91a4.17,4.17,0,0,1,8.34,0v55a1.5,1.5,0,0,0,3,0V383.15h37V399a1.5,1.5,0,0,0,3,0v-55A7.18,7.18,0,0,0,122.42,336.74Zm-4.17,7.17a4.17,4.17,0,0,1,8.34,0v7.34h-8.34ZM89.59,380.15v-25.9h25.66v15.1a1.5,1.5,0,0,0,3,0v-15.1h8.34v25.9Z" style="fill: rgb(255, 255, 255); opacity: 0.4; isolation: isolate; transform-origin: 102.42px 368.62px;" class="animable"></path></g></g><g id="freepik--character-2--inject-18" class="animable" style="transform-origin: 246.365px 375.63px;"><path d="M236.05,346.77s1.49-1.1-1-2.68-3.09.55-4.92-1.58-6.47-2.59-8.14-.53-3,7.42-6.81,6.51-7.32-.07-7.78,1.79-2.17,5.3-3.89,4.78-2.05,1-.68,1,3.54-.2,4.34-1.54a2.86,2.86,0,0,1,3.29-1.4s-3.29,1.45-3.29,3,2.29,2.34-.57,5.36-8,6.66-9.37,5.47-1.37-1.59-1.83-1.73-1.25,1.32,0,1.73a22.16,22.16,0,0,0,4.46,1.1c.91,0,1.26.34,2.51.8a10.64,10.64,0,0,0,3.89,0s-1.15,2.89-3.77,2.59-5,.72-5,1.06-1,.81-.23.86,2.29-.74,2.86-.74,1.14-.45,4.11.74,5.26.18,6.63,0,.36,3.25-2,2.91-2.58,4-1.21,3.09,2.28-.23,6,1.31,24-1.66,25.59-5-.59-10.48-.59-10.48,4.36,2.89,4.48,5.09-1.26,4.59-.46,6,2.06,1.83,1.49,1a3.83,3.83,0,0,1,.14-3.94c.88-1.2,3.06-3.37,1.11-5.31a24.42,24.42,0,0,1-3.65-5.55s2.4.08,2.74.87a4.35,4.35,0,0,1,.23,1.85s3.34-.87.87-4.62-5.21-6.48-4.53-7.46,4.11-2.35,1.26-4.74A7.79,7.79,0,0,0,236.05,346.77Z" style="fill: rgb(38, 50, 56); transform-origin: 220.619px 360.86px;" id="elc70e3o76jdu" class="animable"></path><path d="M247.19,407.93l-27.08,1.89a64.34,64.34,0,0,0-2.88-16.07c-.65-2.1-1.46-4.44-2.51-7.15-.55-1.44-1.17-3-1.86-4.67-.52-1.26-1.07-2.61-1.69-4a96.19,96.19,0,0,1,11.24-2.19,104.78,104.78,0,0,1,12.16-1c5.27,0,11.32.45,11.32.45s.86.16,1.4,4.68C247.79,384,248.27,392.51,247.19,407.93Z" style="fill: rgb(235, 179, 118); transform-origin: 229.505px 392.28px;" id="elmpsbf2eanpm" class="animable"></path><path d="M247.45,403.64c-4.26.66-11.41-1.72-11.41-1.72-9.94,3.61-15.63,3.28-15.63,3.28l-.81-.62a56.83,56.83,0,0,0-2-9.75c5.95-6.2.75-18.48.75-18.48.8-.14,1.6-.28,2.41-.4a29.27,29.27,0,0,1,4.53,6.48c3.64,6.62,10.79,9.82,10.79,9.82,4.15-9.12,1.36-15.08-.36-17.58,1.35,0,2.72,0,4,.1,3.62,2.81,4.33,7.45,5.29,9.93a19.72,19.72,0,0,0,2.86,4.66C247.87,393.1,247.78,397.79,247.45,403.64Z" style="fill: rgb(18, 130, 222); transform-origin: 232.735px 389.939px;" id="elbhpkv1utrm" class="animable"></path><path d="M245.89,375.12c3.53.56,15.76,2.73,15.76,2.73l-12.8-14.43a4.13,4.13,0,0,1-2.06-.94c-1-.85-3.65-7.54-3.65-8s3.2-4.66,3.88-4.2,3.43,6.27,3.32,7.42a6.7,6.7,0,0,0,.22,2.29s16.25,14.09,17.61,17.82-3,7.77-21.26,5.71l-1.49-8.48" style="fill: rgb(235, 179, 118); transform-origin: 255.77px 367.161px;" id="elk3bpsykbfi" class="animable"></path><path d="M232.34,380.65c-6.67-.85-8.68-3.7-8.68-3.7a6.26,6.26,0,0,0,1.51-2.19c1.65-3.92-.8-8.73-.8-8.73l8,1.5a23.26,23.26,0,0,0-.27,2.33c0,.38,0,.72,0,1.05-.06,4.88,2.14,4.92,2.14,4.92C235.65,378.47,232.34,380.65,232.34,380.65Z" style="fill: rgb(235, 179, 118); transform-origin: 229.125px 373.34px;" id="elouami5bdl4" class="animable"></path><g id="elkb9l8yn8hv"><path d="M232.41,367.53a23.26,23.26,0,0,0-.27,2.33,9.68,9.68,0,0,1-7,4.9c1.65-3.92-.8-8.73-.8-8.73Z" style="opacity: 0.2; isolation: isolate; transform-origin: 228.375px 370.395px;" class="animable"></path></g><path d="M227.77,346.8c-7-.38-9.43,3.23-10.34,10.4-1.13,9,.51,15.46,9.35,14C238.78,369.26,239.37,347.44,227.77,346.8Z" style="fill: rgb(235, 179, 118); transform-origin: 226.625px 359.09px;" id="elu5b70yzol4k" class="animable"></path><path d="M222,357.06a14.6,14.6,0,0,1-2.2,2.78,1.91,1.91,0,0,0,1.8.89Z" style="fill: rgb(213, 135, 69); transform-origin: 220.9px 358.899px;" id="el1uyranf4ap5" class="animable"></path><path d="M227.2,356.64l-1.21-.58S226.53,357.16,227.2,356.64Z" style="fill: rgb(38, 50, 56); transform-origin: 226.595px 356.42px;" id="elt506kr3k9dn" class="animable"></path><path d="M226.93,356.77s1.14-.63,1.7.2c0,0-.44-1.49-2-.59Z" style="fill: rgb(38, 50, 56); transform-origin: 227.63px 356.531px;" id="el5gmfdz39upn" class="animable"></path><path d="M219.16,356c0,.58.23,1.07.61,1.1s.73-.41.77-1-.23-1.06-.61-1.09S219.2,355.47,219.16,356Z" style="fill: rgb(38, 50, 56); transform-origin: 219.852px 356.055px;" id="elvxau6a61b8" class="animable"></path><path d="M220.09,355.1l-1.21-.58S219.42,355.61,220.09,355.1Z" style="fill: rgb(38, 50, 56); transform-origin: 219.485px 354.878px;" id="elw9ewap1xjh" class="animable"></path><path d="M229.58,353.47a.35.35,0,0,1-.28-.14,3.3,3.3,0,0,0-2.67-1.08.35.35,0,0,1-.37-.32.35.35,0,0,1,.32-.37,4,4,0,0,1,3.27,1.36.35.35,0,0,1-.07.48A.31.31,0,0,1,229.58,353.47Z" style="fill: rgb(38, 50, 56); transform-origin: 228.087px 352.511px;" id="elx80rn348mur" class="animable"></path><path d="M218.73,352.09a.32.32,0,0,1-.29-.16.33.33,0,0,1,.12-.47,3.52,3.52,0,0,1,3.12-.44.33.33,0,0,1,.18.45.35.35,0,0,1-.45.18,2.89,2.89,0,0,0-2.5.4A.39.39,0,0,1,218.73,352.09Z" style="fill: rgb(38, 50, 56); transform-origin: 220.139px 351.464px;" id="elk7mni1vzoi" class="animable"></path><path d="M222.44,363.54a17.09,17.09,0,0,1,.68,2.47l.45,0c2.05-.09,3-.81,3.36-1.58a2.87,2.87,0,0,0,.18-1.93,9.56,9.56,0,0,1-4,1Z" style="fill: rgb(38, 50, 56); transform-origin: 224.82px 364.255px;" id="elp98z8l2earh" class="animable"></path><path d="M223.14,363.49l.22.73c1.92-.1,3.26-.42,3.84-1a2.63,2.63,0,0,0-.09-.71A9.56,9.56,0,0,1,223.14,363.49Z" style="fill: rgb(255, 255, 255); transform-origin: 225.17px 363.365px;" id="el92vqpjs8y9f" class="animable"></path><path d="M223.57,366c2.05-.09,3-.81,3.36-1.58a6.8,6.8,0,0,0-2.25.55A2.55,2.55,0,0,0,223.57,366Z" style="fill: rgb(222, 87, 83); transform-origin: 225.25px 365.21px;" id="elzitx467lv0r" class="animable"></path><path d="M234.76,359s-2.95-5.92-2.22-10.32c0,0-13.52-6.41-15,7.6,0,0-.66-12.55,11.35-12.17s11,17.94,4.52,22.83C233.43,366.93,236.58,362.69,234.76,359Z" style="fill: rgb(38, 50, 56); transform-origin: 227.84px 355.521px;" id="elvk7ahp8ptt" class="animable"></path><path d="M233.54,360.4a3.07,3.07,0,0,1,3.45-2.62c2.15.36,2.94,4.85-2.5,5.63C233.71,363.52,233.31,362.74,233.54,360.4Z" style="fill: rgb(235, 179, 118); transform-origin: 236.049px 360.586px;" id="eljgw4fjle6o" class="animable"></path><g id="elnesqautrzf"><path d="M238,374.71c-2.51,5.12-11.67,23.16-18.57,28.47a58.61,58.61,0,0,0-2.19-9.43c-.56-1.8-1.23-3.75-2.07-6,.64-2.17,1.16-3.65,1.16-3.65l1.24,1.16,12-9.91a37.39,37.39,0,0,1,2.54-5.08c0,.21,0,.42,0,.62a7.52,7.52,0,0,0,.73,3.84l1.75-.08C235.7,374.66,236.86,374.68,238,374.71Z" style="opacity: 0.2; isolation: isolate; transform-origin: 226.585px 386.725px;" class="animable"></path></g><path d="M211.17,377.9c-3.91,2.81-.57,22.11,2.26,23,5.61,1.72,18.85-21.32,18.85-21.32a7.89,7.89,0,0,0,2.3,0c.45-.21,3.52-7.71,4-8.13s-4-4.22-4-4.22-4.58,8.6-4.35,9.91c0,0-12.75,13.29-13.12,12.83s-1.16-8.2-1.16-8.2Z" style="fill: rgb(235, 179, 118); transform-origin: 224.002px 384.111px;" id="eleam3olod12j" class="animable"></path><path d="M211.17,409s3.13-3.08,5.94-2.23,4.6,2.25,8.14,1,8.28-4.93,10.88-2.64,6.72,2.18,9.64,1.55,3.77-.91,7.36,0,15.6,2.39,18.51-5.89,5.49-4,10.8-1.94-3.26-15.6-3.09-20.22,14.57,22.1,16.46,30.33c0,0,1-2.23,3.77-.86a51.06,51.06,0,0,0,6.34,2.5H193s6.69.25,9.43-2S211.17,409,211.17,409Z" style="fill: rgb(18, 130, 222); transform-origin: 249.46px 394.353px;" id="elmgp0yqi4y5q" class="animable"></path><g id="el2b73ztzrrn8"><path d="M211.17,409s3.13-3.08,5.94-2.23,4.6,2.25,8.14,1,8.28-4.93,10.88-2.64,6.72,2.18,9.64,1.55,3.77-.91,7.36,0,15.6,2.39,18.51-5.89,5.49-4,10.8-1.94-3.26-15.6-3.09-20.22,14.57,22.1,16.46,30.33c0,0,1-2.23,3.77-.86a51.06,51.06,0,0,0,6.34,2.5H193s6.69.25,9.43-2S211.17,409,211.17,409Z" style="fill: rgb(255, 255, 255); opacity: 0.6; isolation: isolate; transform-origin: 249.46px 394.353px;" class="animable"></path></g><path d="M262.73,392.92c-.34-.32-2.4-3.56-4.45-6.19s-3.43,1-1.55,2.21-.85,3,.69,3.31,4.63,1.46,5.31,2.18S262.73,392.92,262.73,392.92Z" style="fill: rgb(18, 130, 222); transform-origin: 259.436px 390.184px;" id="eletvmd5i7e4" class="animable"></path><path d="M265,357.14c3.72,2.32-.34-7.91-3.6-8.76s-4.7-1.21-5.52-3.43-2.46,1.43-.82,1.82,4.46,3.71,2.57,3.51-4.7,1.4-1.75,2.23,4.66.09,5,2S263.07,356,265,357.14Z" style="fill: rgb(18, 130, 222); transform-origin: 260.421px 350.86px;" id="elknst7v1k56" class="animable"></path><path d="M196.41,385.8c-.37-4.21-2.11.92-5.43,0s-4.17-5-4.17-.92S192,387,193,388.94s0,5.19,1.73,3.31,1-5,2.73-3.53,5.31,1.71,3.08.22S196.58,387.75,196.41,385.8Z" style="fill: rgb(18, 130, 222); transform-origin: 194.03px 387.957px;" id="elwhd6x35zi4c" class="animable"></path><g id="elr9j42nlg5ad"><path d="M262.73,392.92c-.34-.32-2.4-3.56-4.45-6.19s-3.43,1-1.55,2.21-.85,3,.69,3.31,4.63,1.46,5.31,2.18S262.73,392.92,262.73,392.92Z" style="fill: rgb(255, 255, 255); opacity: 0.6; isolation: isolate; transform-origin: 259.436px 390.184px;" class="animable"></path></g><g id="elaktfc3k1fw"><path d="M265,357.14c3.72,2.32-.34-7.91-3.6-8.76s-4.7-1.21-5.52-3.43-2.46,1.43-.82,1.82,4.46,3.71,2.57,3.51-4.7,1.4-1.75,2.23,4.66.09,5,2S263.07,356,265,357.14Z" style="fill: rgb(255, 255, 255); opacity: 0.6; isolation: isolate; transform-origin: 260.421px 350.86px;" class="animable"></path></g><g id="el5342ljf9c4"><path d="M196.41,385.8c-.37-4.21-2.11.92-5.43,0s-4.17-5-4.17-.92S192,387,193,388.94s0,5.19,1.73,3.31,1-5,2.73-3.53,5.31,1.71,3.08.22S196.58,387.75,196.41,385.8Z" style="fill: rgb(255, 255, 255); opacity: 0.6; isolation: isolate; transform-origin: 194.03px 387.957px;" class="animable"></path></g></g><g id="freepik--character-3--inject-18" class="animable" style="transform-origin: 352.752px 336.96px;"><path d="M270.67,417.25s1-7.95,4.46-5.49,13.71,3.77,13-2-.68-24.35-5.82-32.9-.34-6.77,3.77-8-6.17-19.77-1.72-19.77,12,44.51,18.87,45.58,10.13-27.32,10.54-32.32,1.57-10.31,6.42-3.88,7.45-33.14,10.32-32.21,7,7.84,3.37,17.07-4,38.51,5.26,37.92,18.42-33.21,23.47-30.44-7.78,24.71-5.65,31.56,10.76-9.2,19.46-10.6-1.83,21.59,5.5,23.64,25.83-28.92,32.34-25.61-18,24.39-19.65,30.31,22.74-6.44,25.14-2.15-8.57,10.11-6.86,13.2,22.28,1.59,21.94,6.11Z" style="fill: rgb(18, 130, 222); transform-origin: 352.752px 371.757px;" id="elbtbr5oqy1b" class="animable"></path><g id="elom43mrbc0kb"><path d="M270.67,417.25s1-7.95,4.46-5.49,13.71,3.77,13-2-.68-24.35-5.82-32.9-.34-6.77,3.77-8-6.17-19.77-1.72-19.77,12,44.51,18.87,45.58,10.13-27.32,10.54-32.32,1.57-10.31,6.42-3.88,7.45-33.14,10.32-32.21,7,7.84,3.37,17.07-4,38.51,5.26,37.92,18.42-33.21,23.47-30.44-7.78,24.71-5.65,31.56,10.76-9.2,19.46-10.6-1.83,21.59,5.5,23.64,25.83-28.92,32.34-25.61-18,24.39-19.65,30.31,22.74-6.44,25.14-2.15-8.57,10.11-6.86,13.2,22.28,1.59,21.94,6.11Z" style="fill: rgb(255, 255, 255); opacity: 0.6; isolation: isolate; transform-origin: 352.752px 371.757px;" class="animable"></path></g><g id="freepik--group--inject-18" class="animable" style="transform-origin: 346.892px 336.606px;"><path d="M318.06,399c-4.85-9.32-4.24-15-4.24-15l14.86-16,5.35-7,5.49,1.28,21.83,5.13h0l5.9,1.38C376.1,425.52,322.91,408.35,318.06,399Z" style="fill: rgb(18, 130, 222); transform-origin: 341.018px 384.964px;" id="elr4g157hx179" class="animable"></path><g id="el7x3lenkrqhq"><path d="M361.39,373.3s-10.15-1.41-15.31,1.62-14.51,18.19-14.53,23.83l-6.41-10.27,14.38-26.15,21.83,5.13h0Z" style="opacity: 0.2; isolation: isolate; transform-origin: 343.265px 380.54px;" class="animable"></path></g><path d="M395.2,292l-2.65-16.09a3.53,3.53,0,0,1-1.9-2.53c-.13-1.67,7.36-9.53,7.36-9.53s3.31,3.78,3.78,5-4.25,6.84-4.25,6.84l3.07,13.42Z" style="fill: rgb(185, 121, 100); transform-origin: 396.236px 277.925px;" id="eldh97fxzif4u" class="animable"></path><path d="M368.45,332.57c-3.94,2.42-14.65,5.14-14.65,5.14s-2.18-7.81-.8-9.21c3.13.07,4.86-1.06,5.81-2.75a9.08,9.08,0,0,0,1-3.4,18.62,18.62,0,0,0,.11-2l11.62-5.6C369.23,319.49,365.85,328.34,368.45,332.57Z" style="fill: rgb(185, 121, 100); transform-origin: 362.041px 326.23px;" id="elh255xnqq9dr" class="animable"></path><g id="el1n42ucfhup"><path d="M369.36,319.33c-1.57,6-8,6.54-10.55,6.42a9.08,9.08,0,0,0,1-3.4Z" style="opacity: 0.2; isolation: isolate; transform-origin: 364.085px 322.547px;" class="animable"></path></g><path d="M365.77,294.63s-8.19,4.3-7,11.37c1,6.26,13.69-6.6,13.69-6.6Z" style="fill: rgb(38, 50, 56); transform-origin: 365.556px 301.174px;" id="eljca9ry9w4zk" class="animable"></path><path d="M364,321.94a8.78,8.78,0,0,1-9.58-4.64,9.78,9.78,0,0,1-.79-7.16,7.59,7.59,0,0,1,.32-1c2.34-6,9-13.93,16.2-12.31a9.5,9.5,0,0,1,7.26,11.32,9.38,9.38,0,0,1-1.92,4C371.19,317.62,368.92,321,364,321.94Z" style="fill: rgb(185, 121, 100); transform-origin: 365.457px 309.366px;" id="elwrm3k46h0rc" class="animable"></path><path d="M365.71,307.72c-.28.48-.82.67-1.13.45s-.29-.76,0-1.22.84-.67,1.14-.46S366,307.24,365.71,307.72Z" style="fill: rgb(38, 50, 56); transform-origin: 365.146px 307.335px;" id="elzm8k08ct6tr" class="animable"></path><path d="M360.46,304.06c-.29.48-.84.67-1.14.46s-.28-.77,0-1.23.83-.67,1.13-.46S360.76,303.62,360.46,304.06Z" style="fill: rgb(38, 50, 56); transform-origin: 359.891px 303.677px;" id="el29t9zpw75wa" class="animable"></path><path d="M362,305.45a20.05,20.05,0,0,1-5,2.43,3.25,3.25,0,0,0,1.94,2Z" style="fill: rgb(162, 78, 63); transform-origin: 359.5px 307.665px;" id="el4cf7u5r30cg" class="animable"></path><path d="M368.53,307.15a.37.37,0,0,1-.19-.29,2.7,2.7,0,0,0-1.11-2.13.33.33,0,1,1,.33-.57h0a3.3,3.3,0,0,1,1.43,2.67.33.33,0,0,1-.31.35h0A.41.41,0,0,1,368.53,307.15Z" style="fill: rgb(38, 50, 56); transform-origin: 368.019px 305.642px;" id="el8e5rx1z3uoe" class="animable"></path><path d="M359.46,300.68a.34.34,0,0,1-.17-.11.33.33,0,0,1,.12-.45h0a3.28,3.28,0,0,1,3-.17.34.34,0,0,1,.14.45h0a.34.34,0,0,1-.45.14h0a2.68,2.68,0,0,0-2.4.17A.34.34,0,0,1,359.46,300.68Z" style="fill: rgb(38, 50, 56); transform-origin: 360.916px 300.193px;" id="elti0mrswa16f" class="animable"></path><path d="M376.26,302.11l-2.17,2.2a2.3,2.3,0,0,1-.84,3c-2.36,1.44-3.64,5.5-3,8,0,0,.73-.85,1.32-.06s-2.35,2.4-3,4.79c0,0,1.89.48,5.39-2.65,4.35-3.89,7.61-7.22,8-9.66Z" style="fill: rgb(38, 50, 56); transform-origin: 375.265px 311.088px;" id="el7balu7c98h9" class="animable"></path><path d="M374.73,318.57a6.63,6.63,0,0,1-5,.58c-2.22-.65-2.12-2.94-.48-4.41,1.47-1.29,4.43-2.57,6.16-1.1A3,3,0,0,1,374.73,318.57Z" style="fill: rgb(185, 121, 100); transform-origin: 372.225px 316.19px;" id="el482lvvdoive" class="animable"></path><path d="M357.76,311.85a17.71,17.71,0,0,1-.62,2.63c.14.07.28.15.43.21,1.94.95,3.15.75,3.91.24a2.84,2.84,0,0,0,.87-1,2.6,2.6,0,0,0,.27-.7,10.21,10.21,0,0,1-4.19-1.08Z" style="fill: rgb(38, 50, 56); transform-origin: 359.88px 313.604px;" id="el65f194whoue" class="animable"></path><path d="M358.43,312.16l-.16.78c1.83.89,3.24,1.27,4.08,1a2.6,2.6,0,0,0,.27-.7A10.21,10.21,0,0,1,358.43,312.16Z" style="fill: rgb(255, 255, 255); transform-origin: 360.445px 313.093px;" id="el76aer4ylex7" class="animable"></path><path d="M357.57,314.69c1.94.95,3.15.75,3.91.24a7,7,0,0,0-2.36-.63A2.68,2.68,0,0,0,357.57,314.69Z" style="fill: rgb(222, 87, 83); transform-origin: 359.525px 314.827px;" id="elj3gbe792is" class="animable"></path><path d="M365.39,297.08a4.24,4.24,0,0,1,.39-4.69c1.82-2.45,5.62-2,5.62-2a3,3,0,0,0-1.11,1.54,11.18,11.18,0,0,1,4-.41c1.51.29,4.58-.87,4.58-.87a5.51,5.51,0,0,1,0,4s3.46-.67,3.54-2c0,0,2.49,4.31,0,7.68,0,0,1.31.48,2.21-1.21,0,0,2.07,5.32-.69,7.89,0,0,1.56-.26,1.93-1.27,0,0-3.27,9.55-8.65,8.53s-2.26-9.9-2.26-9.9l-.87-.06Z" style="fill: rgb(38, 50, 56); transform-origin: 375.36px 302.352px;" id="elkeadrckrml" class="animable"></path><path d="M330.53,363.54l-12.18,29.7-4.91-14.34-4.23-12.35L306,403l-8.29-.15s-5.79-38-1.27-51.29,12.65-16.89,17.95-14c4.34,2.35,12.41,18.28,15.19,24C330.17,362.77,330.53,363.54,330.53,363.54Z" style="fill: rgb(185, 121, 100); transform-origin: 312.622px 369.814px;" id="els0ote6irid" class="animable"></path><g id="elspcas9q0bc"><path d="M330.53,363.54l-12.18,29.7-4.91-14.34c3.81-8.37,12.55-14.95,16.11-17.39C330.17,362.77,330.53,363.54,330.53,363.54Z" style="opacity: 0.2; isolation: isolate; transform-origin: 321.985px 377.375px;" class="animable"></path></g><path d="M309.46,408.33,296.61,415a9.88,9.88,0,0,1-1.05.49c-4.66,2-7.91.51-4.1-2.75,4.08-3.5,6.34-10.83,6.34-10.83s7.52-4.53,7.86-3.9.84,1.44,1.24,2.09C310,404.93,312.72,406.65,309.46,408.33Z" style="fill: rgb(185, 121, 100); transform-origin: 300.36px 407.172px;" id="eloo7415f3au" class="animable"></path><g id="elv8kpkkou9j"><path d="M309.46,408.33,296.61,415a9.88,9.88,0,0,1-1.05.49c2.59-6.84,8.11-12.77,11.34-15.39C310,404.93,312.72,406.65,309.46,408.33Z" style="opacity: 0.2; isolation: isolate; transform-origin: 303.248px 407.795px;" class="animable"></path></g><path d="M384.93,327.57s-8.63,27.37-17.67,41.27l-5.9-1.38L334,361.05s.22-4.8,1.09-11.49c1.24-9.59,3.81-23.05,9-31.79C344.23,317.53,353,333.08,384.93,327.57Z" style="fill: rgb(185, 121, 100); transform-origin: 359.465px 343.304px;" id="ele469tur663" class="animable"></path><g id="elh3ny36gg8a8"><path d="M361.36,367.46,334,361.05s.22-4.8,1.09-11.49c6-3.86,19.25-11.8,22.09-7.94C360.23,345.74,361.13,361.83,361.36,367.46Z" style="opacity: 0.2; isolation: isolate; transform-origin: 347.68px 354.024px;" class="animable"></path></g><path d="M359.33,380.39s1.08-32.2-7.19-36c-15-6.92-42.54,61.8-42.54,61.8l5.33,5,22.71-27.56,1.58,11.23S352.91,395.3,359.33,380.39Z" style="fill: rgb(185, 121, 100); transform-origin: 334.488px 377.545px;" id="elz6itajxjozn" class="animable"></path><path d="M318.89,405c0-.71-8.77.2-8.77.2s-5.17,5.69-10.35,7.12-2.13,4.46,3.71,4.23l14.46-.57C322.1,415.83,319.36,412.4,318.89,405Z" style="fill: rgb(185, 121, 100); transform-origin: 308.666px 410.646px;" id="el29o9wfmm3mk" class="animable"></path><path d="M398.64,280.87S404,303,404,306.49s-25.12,36-25.12,36L374,329.12s21.16-20.09,22.23-22-2.42-25.88-2.42-25.88Z" style="fill: rgb(185, 121, 100); transform-origin: 389px 311.68px;" id="elws4o14qbyxc" class="animable"></path><path d="M348.47,283.05l9.47-13.17a3.5,3.5,0,0,0,2.83-1.42c.85-1.44-2.37-11.81-2.37-11.81s-4.64,1.93-5.62,2.83.78,8,.78,8l-9.73,11.91Z" style="fill: rgb(185, 121, 100); transform-origin: 352.371px 269.85px;" id="elxcshn9xdmgc" class="animable"></path><path d="M351,325.85l-10.33,9.79s-.53-2.64-1.29-6.61c-.8-4.18-1.86-9.86-2.83-15.5-1.71-9.95-3.16-19.82-2.41-21.29,1.57-3.1,16.17-20.58,16.17-20.58l4.2,2.48s-13.76,19.92-13.65,22.11S351,325.85,351,325.85Z" style="fill: rgb(185, 121, 100); transform-origin: 344.224px 303.65px;" id="elcvwrl2l8f29" class="animable"></path></g><path d="M287,417.24c4.2,0,6.82-3.68,6-10.08s2.42,5.49,4.88,6,6.46,2.94,10.76-1.87,4.26-.6,4.77.5,7.42-19.87,9.65-18-3.79,14.86-3.4,16.94,7.6-.83,12.54-5.24,3.54,2.29,2.26,5.24,3,9.42,9.7,3.43,11.61-9.84,12.79-5.16,10.29,9.13,11.54,2.82S363,396.92,368,396.5s2.17,10.11,4.44,13.24,8.07-.7,9.49-3.11,2.84,1.29,3,4.51,19.42,2.07,20.4,6.1H287" style="fill: rgb(18, 130, 222); transform-origin: 346.165px 405.456px;" id="elqu183377u9a" class="animable"></path><g id="el9as5agytrl"><path d="M287,417.24c4.2,0,6.82-3.68,6-10.08s2.42,5.49,4.88,6,6.46,2.94,10.76-1.87,4.26-.6,4.77.5,7.42-19.87,9.65-18-3.79,14.86-3.4,16.94,7.6-.83,12.54-5.24,3.54,2.29,2.26,5.24,3,9.42,9.7,3.43,11.61-9.84,12.79-5.16,10.29,9.13,11.54,2.82S363,396.92,368,396.5s2.17,10.11,4.44,13.24,8.07-.7,9.49-3.11,2.84,1.29,3,4.51,19.42,2.07,20.4,6.1H287" style="fill: rgb(255, 255, 255); opacity: 0.7; isolation: isolate; transform-origin: 346.165px 405.456px;" class="animable"></path></g></g><g id="freepik--character-1--inject-18" class="animable" style="transform-origin: 153.896px 241.594px;"><path d="M148.3,185.81s-11.76,14.88-22.57,9.36-19.88-12.21-22.1-21.92-9.08-10.82-9.08-10.82,2.59-2.59,6.86,1.11c0,0,2.44-3-1-7.53S98,141.32,106.67,141.5c0,0-4.34,2.78-2.49,5.74s11.84,3.71,12.5,9.08c0,0,4.55-1.71,2.32-5.86a5.44,5.44,0,0,1,1.48-6.92s-2.19,4.77.85,6.92,9.34,7.9,6.93,12.53a5.83,5.83,0,0,0,3.26-5.45s6.21,3.78,5.93,8.6S150,176.59,148.3,185.81Z" style="fill: rgb(38, 50, 56); transform-origin: 121.503px 168.948px;" id="elmj463q5y77" class="animable"></path><path d="M149.12,198.09s-1.77,6.94-10.3,9.15-17.95-3.56-17.95-3.56l1.87,16.54,10.45,20.44,26.68-7S158.27,209,149.12,198.09Z" style="fill: rgb(228, 137, 123); transform-origin: 140.37px 219.375px;" id="elad54d7b95vs" class="animable"></path><path d="M140.57,208.82l-8.19.25c3.63-4.66-2.94-12.75-2.94-12.75l8.1,1.76c1.93,8,5.26,8.25,5.26,8.25Z" style="fill: rgb(228, 137, 123); transform-origin: 136.12px 202.695px;" id="eldozrxh8n0wf" class="animable"></path><g id="elw5gl1wjs01m"><path d="M139.8,203.83a12.23,12.23,0,0,1-8.13-4.09,24.53,24.53,0,0,0-2.23-3.42l8.09,1.76A18.81,18.81,0,0,0,139.8,203.83Z" style="opacity: 0.2; isolation: isolate; transform-origin: 134.62px 200.075px;" class="animable"></path></g><path d="M137.53,176.19c7.06.59,9,4.56,8.93,11.88-.11,9.14-2.67,15.44-11.33,12.76C123.35,197.19,125.8,175.21,137.53,176.19Z" style="fill: rgb(228, 137, 123); transform-origin: 136.941px 188.805px;" id="elxqfig8k2f79" class="animable"></path><path d="M141.93,187.29a14.66,14.66,0,0,0,1.81,3.1,2,2,0,0,1-1.93.64Z" style="fill: rgb(222, 87, 83); transform-origin: 142.775px 189.183px;" id="eliu0y79ntui" class="animable"></path><path d="M137.15,186.13l1.53-.5S137.86,186.84,137.15,186.13Z" style="fill: rgb(38, 50, 56); transform-origin: 137.915px 185.992px;" id="elklz2k4ful3f" class="animable"></path><path d="M137.68,186a1.28,1.28,0,0,0-1.68.45,2,2,0,0,1,1.62,0Z" style="fill: rgb(38, 50, 56); transform-origin: 136.84px 186.151px;" id="el0qy2loynbjs8" class="animable"></path><path d="M134.84,182.65a.39.39,0,0,1-.25-.1.37.37,0,0,1,0-.52,4,4,0,0,1,3.48-.91.36.36,0,0,1,.28.43.37.37,0,0,1-.43.28,3.28,3.28,0,0,0-2.81.71A.38.38,0,0,1,134.84,182.65Z" style="fill: rgb(38, 50, 56); transform-origin: 136.421px 181.841px;" id="elvg6r1wiiirj" class="animable"></path><path d="M145.91,182.78a.35.35,0,0,1-.22-.08,3,3,0,0,0-2.45-.75.36.36,0,0,1-.44-.25.37.37,0,0,1,.25-.45,3.69,3.69,0,0,1,3.09.88.37.37,0,0,1,.06.51A.38.38,0,0,1,145.91,182.78Z" style="fill: rgb(38, 50, 56); transform-origin: 144.531px 181.987px;" id="eljpi98wxur6" class="animable"></path><path d="M128.82,187.45s3.78-5.53,3.66-10c0,0,14.47-4.55,14,9.71,0,0,2.42-12.5-9.69-13.79S123.21,189.79,129,195.6C129,195.6,126.47,190.9,128.82,187.45Z" style="fill: rgb(38, 50, 56); transform-origin: 136.202px 184.452px;" id="ela4yzb73mxb" class="animable"></path><path d="M129.85,189a3.12,3.12,0,0,0-3.1-3.11c-2.21.06-3.63,4.47,1.73,6C129.25,192.14,129.75,191.41,129.85,189Z" style="fill: rgb(228, 137, 123); transform-origin: 127.313px 188.913px;" id="elozbiuq983qg" class="animable"></path><path d="M141.86,193.13a18.85,18.85,0,0,0-1.38,2.19,3.66,3.66,0,0,1-.43-.15c-2-.68-2.64-1.65-2.8-2.51a2.69,2.69,0,0,1,.1-1.26,2.78,2.78,0,0,1,.29-.66,9.91,9.91,0,0,0,3.56,2.14Z" style="fill: rgb(38, 50, 56); transform-origin: 139.538px 193.03px;" id="elhg56a2sfj7" class="animable"></path><path d="M141.2,192.88l-.42.64c-1.84-.65-3.05-1.36-3.43-2.12a2.78,2.78,0,0,1,.29-.66A9.91,9.91,0,0,0,141.2,192.88Z" style="fill: rgb(255, 255, 255); transform-origin: 139.275px 192.13px;" id="el4g9vubal8xg" class="animable"></path><path d="M140.05,195.17c-2-.68-2.64-1.65-2.8-2.51a6.79,6.79,0,0,1,2,1.19A2.53,2.53,0,0,1,140.05,195.17Z" style="fill: rgb(222, 87, 83); transform-origin: 138.65px 193.915px;" id="elc6v7cfqhk4o" class="animable"></path><path d="M137.34,176.71s-3.82,11.38-11.12,10.62,5.21-14.53,5.21-14.53,12.32-3.51,17.68,3.32-2.66,11-2.66,11S147.65,178.15,137.34,176.71Z" style="fill: rgb(38, 50, 56); transform-origin: 137.444px 179.632px;" id="elzdf4qfgfuz" class="animable"></path><path d="M131.52,186.43a.26.26,0,0,1-.24-.16.25.25,0,0,1,.15-.32c5.78-2.21,5.66-10,5.66-10.07a.24.24,0,0,1,.24-.25h0a.26.26,0,0,1,.25.24c0,.08.13,8.21-6,10.55Z" style="fill: rgb(38, 50, 56); transform-origin: 134.423px 181.03px;" id="elfjpd378tb7a" class="animable"></path><path d="M144.31,186.82l1.53-.49S145,187.54,144.31,186.82Z" style="fill: rgb(38, 50, 56); transform-origin: 145.075px 186.689px;" id="ell8jijykhvt" class="animable"></path><path d="M144.84,186.65a1.3,1.3,0,0,0-1.68.45,2,2,0,0,1,1.62,0Z" style="fill: rgb(38, 50, 56); transform-origin: 144px 186.804px;" id="elphen9ceqvh" class="animable"></path><path d="M111.65,160.91l-2.58-6.67a2.29,2.29,0,0,0-.67-2c-1.8-1.34-5.5-2.55-6.43-2.42-1.36.2-4.16,2.66-3.92,4.26s8.16,2.6,8.16,2.6l2.62,7.28Z" style="fill: rgb(228, 137, 123); transform-origin: 104.843px 156.885px;" id="elhekjjo3p0pj" class="animable"></path><path d="M162.29,155.67l2.07-6.84a2.32,2.32,0,0,1,.53-2c1.68-1.47,5.29-3,6.23-2.89,1.37.1,4.34,2.34,4.23,3.95s-7.94,3.2-7.94,3.2l-2.07,7.47Z" style="fill: rgb(228, 137, 123); transform-origin: 168.821px 151.247px;" id="eleryjb7dws2e" class="animable"></path><path d="M122.74,220.22s5-4,3-12.73l-5.36-24.24-11.31-29-2.86,2.49s8,28.22,8.72,29.87c.36.86,1.78,13.53,3.71,22C120.42,216.47,122.74,220.22,122.74,220.22Z" style="fill: rgb(228, 137, 123); transform-origin: 116.211px 187.235px;" id="el0tci4659xgql" class="animable"></path><path d="M168.09,150.29s-8,28.23-8.72,29.89c-.28.68-1.26,8.94-2.63,16.57-.34,1.9-.7,3.77-1.09,5.46-.46,2-.94,3.75-1.42,5.23a0,0,0,0,0,0,0,31.74,31.74,0,0,1-2.67,6.33s-5-4-3-12.73l5.36-24.25,11.31-29Z" style="fill: rgb(228, 137, 123); transform-origin: 158.089px 180.78px;" id="elo2awgec6yfk" class="animable"></path><path d="M130.31,207.28s1,15-4.08,21.63l7,11.75s-6,24.14-3.8,31.55,10.85,15.84,16,15.62c16.33-.7,22.71-24.86,22.71-24.86l-8.22-29.27s.08-14.08-3.86-19.91c0,0-9.14-8.19-12-9.35l-1.23.78s3.37,10.88-.43,11.63-10.66-9.33-10.66-9.33Z" style="fill: rgb(18, 130, 222); transform-origin: 147.185px 246.137px;" id="elatp9m4zx3en" class="animable"></path><path d="M211.23,263.76c-.8,2.82-5,10.36-10,18.83-5.91,10-13,21.23-17,27.65-2.05,3.24-3.35,5.25-3.35,5.25h-5.68l.43-1.13,13.89-36.13,5.29-13.77a95.6,95.6,0,0,1-15,10.82c-7,4-15.49,7.67-23.71,7.69h-.45s.53-.64,1.35-1.89a45.72,45.72,0,0,0,4.86-10.17v0A53.64,53.64,0,0,0,164.45,250l3.64,5.07S200.6,238.28,208,242.71,213.46,255.9,211.23,263.76Z" style="fill: rgb(228, 137, 123); transform-origin: 184.446px 278.728px;" id="eltbuo7n0c3nj" class="animable"></path><path d="M183.79,326.87c-1.55-1.48-4.81-4.87-5.93-5.95-1.83-1.75-3-2.66-4.46-4a.25.25,0,0,1-.11-.12.9.9,0,0,1,.31-1.17s1-.55,2-1.24a12,12,0,0,0,2.44-1.93c.72-.94,1.65-4.52,1.8-4.37l5.5-.17s-.51,1-1.14,2.35a41,41,0,0,0-2.54,6.12c-.38,1.8,3,6.15,5.15,9.62C187.28,326.74,185.35,328.36,183.79,326.87Z" style="fill: rgb(228, 137, 123); transform-origin: 180.035px 317.7px;" id="elst0j3hnxrk" class="animable"></path><g id="elg9hcaw8l1p"><path d="M179.75,275.28c-7,4-15.49,7.67-23.71,7.69l.9-1.89,4.86-10.17v0S169.74,272.48,179.75,275.28Z" style="opacity: 0.2; isolation: isolate; transform-origin: 167.895px 276.94px;" class="animable"></path></g><g id="elrzcc5mp1l7"><path d="M186.8,326c.48.76-1.45,2.38-3,.89s-4.81-4.87-5.93-5.95c-1.83-1.75-3-2.66-4.46-4a.25.25,0,0,1-.11-.12.9.9,0,0,1,.31-1.17s1-.55,2-1.24l13.89-36.13c4,1.32,8,2.77,11.74,4.36-5.91,10-13,21.23-17,27.65a41,41,0,0,0-2.54,6.12C181.27,318.16,184.65,322.51,186.8,326Z" style="opacity: 0.2; isolation: isolate; transform-origin: 187.219px 302.889px;" class="animable"></path></g><path d="M133.88,272.67s1.26-7.48,4.93-12.42,16.78,8.15,16.78,8.15,41.06,15.75,47,25.29S141.4,329.8,141.4,329.8l-2.59-2.32,37.34-26.75S134.25,293.74,133.88,272.67Z" style="fill: rgb(228, 137, 123); transform-origin: 168.421px 294.468px;" id="el9sr2m668kem" class="animable"></path><path d="M150.32,326.12l-4.38-3.32c0-.21-3,2-4.15,2.27-1.32.32-5.45-.33-5.45-.33a.91.91,0,0,0-1,.71v.17c.3,2,.63,3.43.95,5.94.19,1.54.6,6.22.87,8.35s2.78,2.1,2.9,1.2c.5-4.05.61-9.56,2-10.71C143.73,329.1,150.32,326.12,150.32,326.12Z" style="fill: rgb(228, 137, 123); transform-origin: 142.83px 332.238px;" id="el6jtfu54iir4" class="animable"></path></g><g id="freepik--Water--inject-18" class="animable" style="transform-origin: 144.319px 413.093px;"><path d="M219.15,417.25H69.48s.73-5.77,7.39-4.34,12.31,1.11,18.78-2.38,19.45-.53,23.84,2.06,12.64,3.92,21,.5,21.4-2.37,25.75,0,22.3-.5,26.77-.5,5.67,4.78,11.6,3.4S219.48,414.25,219.15,417.25Z" style="fill: rgb(18, 130, 222); transform-origin: 144.319px 413.093px;" id="ely0udb58o9n9" class="animable"></path><g id="elknooq6d0b2n"><path d="M219.15,417.25H69.48s.73-5.77,7.39-4.34,12.31,1.11,18.78-2.38,19.45-.53,23.84,2.06,12.64,3.92,21,.5,21.4-2.37,25.75,0,22.3-.5,26.77-.5,5.67,4.78,11.6,3.4S219.48,414.25,219.15,417.25Z" style="fill: rgb(255, 255, 255); opacity: 0.7; isolation: isolate; transform-origin: 144.319px 413.093px;" class="animable"></path></g></g><defs>     <filter id="active" height="200%">         <feMorphology in="SourceAlpha" result="DILATED" operator="dilate" radius="2"></feMorphology>                <feFlood flood-color="#32DFEC" flood-opacity="1" result="PINK"></feFlood>        <feComposite in="PINK" in2="DILATED" operator="in" result="OUTLINE"></feComposite>        <feMerge>            <feMergeNode in="OUTLINE"></feMergeNode>            <feMergeNode in="SourceGraphic"></feMergeNode>        </feMerge>    </filter>    <filter id="hover" height="200%">        <feMorphology in="SourceAlpha" result="DILATED" operator="dilate" radius="2"></feMorphology>                <feFlood flood-color="#ff0000" flood-opacity="0.5" result="PINK"></feFlood>        <feComposite in="PINK" in2="DILATED" operator="in" result="OUTLINE"></feComposite>        <feMerge>            <feMergeNode in="OUTLINE"></feMergeNode>            <feMergeNode in="SourceGraphic"></feMergeNode>        </feMerge>            <feColorMatrix type="matrix" values="0   0   0   0   0                0   1   0   0   0                0   0   0   0   0                0   0   0   1   0 "></feColorMatrix>    </filter></defs></svg>